<mxfile host="app.diagrams.net" modified="2024-02-29T08:01:05.773Z" agent="Mozilla/5.0 (Windows NT 10.0; Win64; x64) AppleWebKit/537.36 (KHTML, like Gecko) Chrome/121.0.0.0 Safari/537.36" etag="A62h7aH2hQgx-x2oviHw" version="23.1.7" type="device">
  <diagram id="C5RBs43oDa-KdzZeNtuy" name="Page-1">
    <mxGraphModel dx="1290" dy="580" grid="1" gridSize="10" guides="1" tooltips="1" connect="1" arrows="1" fold="1" page="1" pageScale="1" pageWidth="827" pageHeight="1169" math="0" shadow="0">
      <root>
        <mxCell id="WIyWlLk6GJQsqaUBKTNV-0" />
        <mxCell id="WIyWlLk6GJQsqaUBKTNV-1" parent="WIyWlLk6GJQsqaUBKTNV-0" />
        <mxCell id="WIyWlLk6GJQsqaUBKTNV-2" value="" style="rounded=0;html=1;jettySize=auto;orthogonalLoop=1;fontSize=11;endArrow=block;endFill=0;endSize=8;strokeWidth=1;shadow=0;labelBackgroundColor=none;edgeStyle=orthogonalEdgeStyle;exitX=0.43;exitY=0.975;exitDx=0;exitDy=0;exitPerimeter=0;" parent="WIyWlLk6GJQsqaUBKTNV-1" source="WIyWlLk6GJQsqaUBKTNV-3" target="bTlk02OGOey7YHOXpG1A-0" edge="1">
          <mxGeometry relative="1" as="geometry">
            <mxPoint x="380" y="70" as="targetPoint" />
          </mxGeometry>
        </mxCell>
        <mxCell id="WIyWlLk6GJQsqaUBKTNV-3" value="Начало сортировки" style="rounded=1;whiteSpace=wrap;html=1;fontSize=12;glass=0;strokeWidth=1;shadow=0;" parent="WIyWlLk6GJQsqaUBKTNV-1" vertex="1">
          <mxGeometry x="340" width="120" height="40" as="geometry" />
        </mxCell>
        <mxCell id="WIyWlLk6GJQsqaUBKTNV-11" value="Массив отсортирован" style="rounded=1;whiteSpace=wrap;html=1;fontSize=12;glass=0;strokeWidth=1;shadow=0;" parent="WIyWlLk6GJQsqaUBKTNV-1" vertex="1">
          <mxGeometry x="325" y="860" width="120" height="40" as="geometry" />
        </mxCell>
        <mxCell id="bTlk02OGOey7YHOXpG1A-2" style="edgeStyle=none;curved=1;rounded=0;orthogonalLoop=1;jettySize=auto;html=1;entryX=0.5;entryY=0;entryDx=0;entryDy=0;fontSize=12;startSize=8;endSize=8;" edge="1" parent="WIyWlLk6GJQsqaUBKTNV-1" source="bTlk02OGOey7YHOXpG1A-0" target="bTlk02OGOey7YHOXpG1A-1">
          <mxGeometry relative="1" as="geometry" />
        </mxCell>
        <mxCell id="bTlk02OGOey7YHOXpG1A-0" value="Получение &lt;br&gt;массива для сортировки" style="shape=parallelogram;perimeter=parallelogramPerimeter;whiteSpace=wrap;html=1;fixedSize=1;" vertex="1" parent="WIyWlLk6GJQsqaUBKTNV-1">
          <mxGeometry x="330" y="100" width="120" height="60" as="geometry" />
        </mxCell>
        <mxCell id="bTlk02OGOey7YHOXpG1A-4" style="edgeStyle=none;curved=1;rounded=0;orthogonalLoop=1;jettySize=auto;html=1;entryX=0;entryY=0.5;entryDx=0;entryDy=0;fontSize=12;startSize=8;endSize=8;" edge="1" parent="WIyWlLk6GJQsqaUBKTNV-1" source="bTlk02OGOey7YHOXpG1A-1" target="bTlk02OGOey7YHOXpG1A-3">
          <mxGeometry relative="1" as="geometry" />
        </mxCell>
        <mxCell id="bTlk02OGOey7YHOXpG1A-5" value="ДА" style="edgeLabel;html=1;align=center;verticalAlign=middle;resizable=0;points=[];fontSize=12;" vertex="1" connectable="0" parent="bTlk02OGOey7YHOXpG1A-4">
          <mxGeometry x="-0.0643" relative="1" as="geometry">
            <mxPoint as="offset" />
          </mxGeometry>
        </mxCell>
        <mxCell id="bTlk02OGOey7YHOXpG1A-7" style="edgeStyle=none;curved=1;rounded=0;orthogonalLoop=1;jettySize=auto;html=1;entryX=1;entryY=0.5;entryDx=0;entryDy=0;fontSize=12;startSize=8;endSize=8;" edge="1" parent="WIyWlLk6GJQsqaUBKTNV-1" source="bTlk02OGOey7YHOXpG1A-1" target="bTlk02OGOey7YHOXpG1A-6">
          <mxGeometry relative="1" as="geometry" />
        </mxCell>
        <mxCell id="bTlk02OGOey7YHOXpG1A-16" value="НЕТ" style="edgeLabel;html=1;align=center;verticalAlign=middle;resizable=0;points=[];fontSize=12;" vertex="1" connectable="0" parent="bTlk02OGOey7YHOXpG1A-7">
          <mxGeometry x="-0.3053" y="-2" relative="1" as="geometry">
            <mxPoint as="offset" />
          </mxGeometry>
        </mxCell>
        <mxCell id="bTlk02OGOey7YHOXpG1A-1" value="Массив отсортирован?" style="rhombus;whiteSpace=wrap;html=1;" vertex="1" parent="WIyWlLk6GJQsqaUBKTNV-1">
          <mxGeometry x="335" y="200" width="110" height="100" as="geometry" />
        </mxCell>
        <mxCell id="bTlk02OGOey7YHOXpG1A-3" value="Прекратить сортировку" style="rounded=0;whiteSpace=wrap;html=1;" vertex="1" parent="WIyWlLk6GJQsqaUBKTNV-1">
          <mxGeometry x="560" y="220" width="120" height="60" as="geometry" />
        </mxCell>
        <mxCell id="bTlk02OGOey7YHOXpG1A-10" value="" style="edgeStyle=none;curved=1;rounded=0;orthogonalLoop=1;jettySize=auto;html=1;fontSize=12;startSize=8;endSize=8;" edge="1" parent="WIyWlLk6GJQsqaUBKTNV-1" source="bTlk02OGOey7YHOXpG1A-6" target="bTlk02OGOey7YHOXpG1A-9">
          <mxGeometry relative="1" as="geometry" />
        </mxCell>
        <mxCell id="bTlk02OGOey7YHOXpG1A-6" value="Сравниваем элементы массива слева на право." style="rounded=0;whiteSpace=wrap;html=1;" vertex="1" parent="WIyWlLk6GJQsqaUBKTNV-1">
          <mxGeometry x="110" y="210" width="120" height="80" as="geometry" />
        </mxCell>
        <mxCell id="bTlk02OGOey7YHOXpG1A-12" style="edgeStyle=none;curved=1;rounded=0;orthogonalLoop=1;jettySize=auto;html=1;fontSize=12;startSize=8;endSize=8;" edge="1" parent="WIyWlLk6GJQsqaUBKTNV-1" source="bTlk02OGOey7YHOXpG1A-9" target="bTlk02OGOey7YHOXpG1A-11">
          <mxGeometry relative="1" as="geometry" />
        </mxCell>
        <mxCell id="bTlk02OGOey7YHOXpG1A-15" value="ДА" style="edgeLabel;html=1;align=center;verticalAlign=middle;resizable=0;points=[];fontSize=12;" vertex="1" connectable="0" parent="bTlk02OGOey7YHOXpG1A-12">
          <mxGeometry x="-0.15" y="-1" relative="1" as="geometry">
            <mxPoint as="offset" />
          </mxGeometry>
        </mxCell>
        <mxCell id="bTlk02OGOey7YHOXpG1A-14" value="" style="edgeStyle=none;curved=1;rounded=0;orthogonalLoop=1;jettySize=auto;html=1;fontSize=12;startSize=8;endSize=8;" edge="1" parent="WIyWlLk6GJQsqaUBKTNV-1" source="bTlk02OGOey7YHOXpG1A-9" target="bTlk02OGOey7YHOXpG1A-13">
          <mxGeometry relative="1" as="geometry" />
        </mxCell>
        <mxCell id="bTlk02OGOey7YHOXpG1A-17" value="НЕТ" style="edgeLabel;html=1;align=center;verticalAlign=middle;resizable=0;points=[];fontSize=12;" vertex="1" connectable="0" parent="bTlk02OGOey7YHOXpG1A-14">
          <mxGeometry x="-0.43" relative="1" as="geometry">
            <mxPoint as="offset" />
          </mxGeometry>
        </mxCell>
        <mxCell id="bTlk02OGOey7YHOXpG1A-9" value="Левый элемент&amp;gt;&lt;br&gt;Правого элемента?" style="rhombus;whiteSpace=wrap;html=1;rounded=0;" vertex="1" parent="WIyWlLk6GJQsqaUBKTNV-1">
          <mxGeometry x="110" y="310" width="120" height="100" as="geometry" />
        </mxCell>
        <mxCell id="bTlk02OGOey7YHOXpG1A-22" style="edgeStyle=none;curved=1;rounded=0;orthogonalLoop=1;jettySize=auto;html=1;entryX=0.5;entryY=0;entryDx=0;entryDy=0;fontSize=12;startSize=8;endSize=8;" edge="1" parent="WIyWlLk6GJQsqaUBKTNV-1" source="bTlk02OGOey7YHOXpG1A-11" target="bTlk02OGOey7YHOXpG1A-21">
          <mxGeometry relative="1" as="geometry" />
        </mxCell>
        <mxCell id="bTlk02OGOey7YHOXpG1A-11" value="Меняем Элемент 1 и Элемент 2 местами." style="rounded=0;whiteSpace=wrap;html=1;" vertex="1" parent="WIyWlLk6GJQsqaUBKTNV-1">
          <mxGeometry x="325" y="330" width="120" height="60" as="geometry" />
        </mxCell>
        <mxCell id="bTlk02OGOey7YHOXpG1A-20" style="edgeStyle=none;curved=1;rounded=0;orthogonalLoop=1;jettySize=auto;html=1;entryX=0;entryY=0.5;entryDx=0;entryDy=0;fontSize=12;startSize=8;endSize=8;exitX=0;exitY=0.5;exitDx=0;exitDy=0;" edge="1" parent="WIyWlLk6GJQsqaUBKTNV-1" source="bTlk02OGOey7YHOXpG1A-13" target="bTlk02OGOey7YHOXpG1A-9">
          <mxGeometry relative="1" as="geometry">
            <Array as="points">
              <mxPoint x="40" y="430" />
            </Array>
          </mxGeometry>
        </mxCell>
        <mxCell id="bTlk02OGOey7YHOXpG1A-13" value="переходим к следующему элементу" style="whiteSpace=wrap;html=1;rounded=0;" vertex="1" parent="WIyWlLk6GJQsqaUBKTNV-1">
          <mxGeometry x="110" y="470" width="120" height="60" as="geometry" />
        </mxCell>
        <mxCell id="bTlk02OGOey7YHOXpG1A-24" value="" style="edgeStyle=none;curved=1;rounded=0;orthogonalLoop=1;jettySize=auto;html=1;fontSize=12;startSize=8;endSize=8;" edge="1" parent="WIyWlLk6GJQsqaUBKTNV-1" source="bTlk02OGOey7YHOXpG1A-21" target="bTlk02OGOey7YHOXpG1A-23">
          <mxGeometry relative="1" as="geometry" />
        </mxCell>
        <mxCell id="bTlk02OGOey7YHOXpG1A-25" value="ДА" style="edgeLabel;html=1;align=center;verticalAlign=middle;resizable=0;points=[];fontSize=12;" vertex="1" connectable="0" parent="bTlk02OGOey7YHOXpG1A-24">
          <mxGeometry x="-0.02" y="-2" relative="1" as="geometry">
            <mxPoint x="-6" y="-2" as="offset" />
          </mxGeometry>
        </mxCell>
        <mxCell id="bTlk02OGOey7YHOXpG1A-26" style="edgeStyle=none;curved=1;rounded=0;orthogonalLoop=1;jettySize=auto;html=1;entryX=1;entryY=1;entryDx=0;entryDy=0;fontSize=12;startSize=8;endSize=8;exitX=0;exitY=0.5;exitDx=0;exitDy=0;" edge="1" parent="WIyWlLk6GJQsqaUBKTNV-1" source="bTlk02OGOey7YHOXpG1A-21" target="bTlk02OGOey7YHOXpG1A-9">
          <mxGeometry relative="1" as="geometry" />
        </mxCell>
        <mxCell id="bTlk02OGOey7YHOXpG1A-27" value="НЕТ" style="edgeLabel;html=1;align=center;verticalAlign=middle;resizable=0;points=[];fontSize=12;" vertex="1" connectable="0" parent="bTlk02OGOey7YHOXpG1A-26">
          <mxGeometry x="-0.0026" y="2" relative="1" as="geometry">
            <mxPoint as="offset" />
          </mxGeometry>
        </mxCell>
        <mxCell id="bTlk02OGOey7YHOXpG1A-21" value="Прошли весь массив?" style="rhombus;whiteSpace=wrap;html=1;" vertex="1" parent="WIyWlLk6GJQsqaUBKTNV-1">
          <mxGeometry x="340" y="440" width="95" height="90" as="geometry" />
        </mxCell>
        <mxCell id="bTlk02OGOey7YHOXpG1A-29" style="edgeStyle=none;curved=1;rounded=0;orthogonalLoop=1;jettySize=auto;html=1;entryX=0.5;entryY=0;entryDx=0;entryDy=0;fontSize=12;startSize=8;endSize=8;" edge="1" parent="WIyWlLk6GJQsqaUBKTNV-1" source="bTlk02OGOey7YHOXpG1A-23" target="bTlk02OGOey7YHOXpG1A-28">
          <mxGeometry relative="1" as="geometry" />
        </mxCell>
        <mxCell id="bTlk02OGOey7YHOXpG1A-23" value="Сравниваем элементы массива с права на лево" style="whiteSpace=wrap;html=1;" vertex="1" parent="WIyWlLk6GJQsqaUBKTNV-1">
          <mxGeometry x="540" y="455" width="120" height="60" as="geometry" />
        </mxCell>
        <mxCell id="bTlk02OGOey7YHOXpG1A-30" style="edgeStyle=none;curved=1;rounded=0;orthogonalLoop=1;jettySize=auto;html=1;fontSize=12;startSize=8;endSize=8;" edge="1" parent="WIyWlLk6GJQsqaUBKTNV-1" source="bTlk02OGOey7YHOXpG1A-28">
          <mxGeometry relative="1" as="geometry">
            <mxPoint x="450" y="617.5" as="targetPoint" />
          </mxGeometry>
        </mxCell>
        <mxCell id="bTlk02OGOey7YHOXpG1A-32" value="ДА" style="edgeLabel;html=1;align=center;verticalAlign=middle;resizable=0;points=[];fontSize=12;" vertex="1" connectable="0" parent="bTlk02OGOey7YHOXpG1A-30">
          <mxGeometry x="-0.125" relative="1" as="geometry">
            <mxPoint y="1" as="offset" />
          </mxGeometry>
        </mxCell>
        <mxCell id="bTlk02OGOey7YHOXpG1A-33" style="edgeStyle=none;curved=1;rounded=0;orthogonalLoop=1;jettySize=auto;html=1;fontSize=12;startSize=8;endSize=8;entryX=0.5;entryY=0;entryDx=0;entryDy=0;" edge="1" parent="WIyWlLk6GJQsqaUBKTNV-1" source="bTlk02OGOey7YHOXpG1A-28" target="bTlk02OGOey7YHOXpG1A-36">
          <mxGeometry relative="1" as="geometry">
            <mxPoint x="600" y="740" as="targetPoint" />
          </mxGeometry>
        </mxCell>
        <mxCell id="bTlk02OGOey7YHOXpG1A-34" value="НЕТ" style="edgeLabel;html=1;align=center;verticalAlign=middle;resizable=0;points=[];fontSize=12;" vertex="1" connectable="0" parent="bTlk02OGOey7YHOXpG1A-33">
          <mxGeometry x="-0.1877" y="4" relative="1" as="geometry">
            <mxPoint as="offset" />
          </mxGeometry>
        </mxCell>
        <mxCell id="bTlk02OGOey7YHOXpG1A-28" value="Правый элемент &amp;gt;&lt;br&gt;Левого элемента?" style="rhombus;whiteSpace=wrap;html=1;" vertex="1" parent="WIyWlLk6GJQsqaUBKTNV-1">
          <mxGeometry x="530" y="570" width="140" height="95" as="geometry" />
        </mxCell>
        <mxCell id="bTlk02OGOey7YHOXpG1A-38" style="edgeStyle=none;curved=1;rounded=0;orthogonalLoop=1;jettySize=auto;html=1;entryX=0.5;entryY=0;entryDx=0;entryDy=0;fontSize=12;startSize=8;endSize=8;" edge="1" parent="WIyWlLk6GJQsqaUBKTNV-1" source="bTlk02OGOey7YHOXpG1A-31" target="bTlk02OGOey7YHOXpG1A-37">
          <mxGeometry relative="1" as="geometry" />
        </mxCell>
        <mxCell id="bTlk02OGOey7YHOXpG1A-31" value="Меняем элементы местами." style="rounded=0;whiteSpace=wrap;html=1;" vertex="1" parent="WIyWlLk6GJQsqaUBKTNV-1">
          <mxGeometry x="325" y="588" width="120" height="60" as="geometry" />
        </mxCell>
        <mxCell id="bTlk02OGOey7YHOXpG1A-36" value="переходим к следующему элементу" style="whiteSpace=wrap;html=1;rounded=0;" vertex="1" parent="WIyWlLk6GJQsqaUBKTNV-1">
          <mxGeometry x="540" y="720" width="120" height="60" as="geometry" />
        </mxCell>
        <mxCell id="bTlk02OGOey7YHOXpG1A-39" style="edgeStyle=none;curved=1;rounded=0;orthogonalLoop=1;jettySize=auto;html=1;entryX=0.5;entryY=0;entryDx=0;entryDy=0;fontSize=12;startSize=8;endSize=8;" edge="1" parent="WIyWlLk6GJQsqaUBKTNV-1" source="bTlk02OGOey7YHOXpG1A-37" target="WIyWlLk6GJQsqaUBKTNV-11">
          <mxGeometry relative="1" as="geometry" />
        </mxCell>
        <mxCell id="bTlk02OGOey7YHOXpG1A-40" value="ДА" style="edgeLabel;html=1;align=center;verticalAlign=middle;resizable=0;points=[];fontSize=12;" vertex="1" connectable="0" parent="bTlk02OGOey7YHOXpG1A-39">
          <mxGeometry x="-0.0457" y="-2" relative="1" as="geometry">
            <mxPoint as="offset" />
          </mxGeometry>
        </mxCell>
        <mxCell id="bTlk02OGOey7YHOXpG1A-41" style="edgeStyle=none;curved=1;rounded=0;orthogonalLoop=1;jettySize=auto;html=1;entryX=0;entryY=1;entryDx=0;entryDy=0;fontSize=12;startSize=8;endSize=8;exitX=1;exitY=0.5;exitDx=0;exitDy=0;" edge="1" parent="WIyWlLk6GJQsqaUBKTNV-1" source="bTlk02OGOey7YHOXpG1A-37" target="bTlk02OGOey7YHOXpG1A-28">
          <mxGeometry relative="1" as="geometry" />
        </mxCell>
        <mxCell id="bTlk02OGOey7YHOXpG1A-42" value="НЕТ" style="edgeLabel;html=1;align=center;verticalAlign=middle;resizable=0;points=[];fontSize=12;" vertex="1" connectable="0" parent="bTlk02OGOey7YHOXpG1A-41">
          <mxGeometry x="-0.0763" y="4" relative="1" as="geometry">
            <mxPoint x="9" y="-4" as="offset" />
          </mxGeometry>
        </mxCell>
        <mxCell id="bTlk02OGOey7YHOXpG1A-37" value="Прошли весь массив?" style="rhombus;whiteSpace=wrap;html=1;" vertex="1" parent="WIyWlLk6GJQsqaUBKTNV-1">
          <mxGeometry x="337.5" y="700" width="95" height="90" as="geometry" />
        </mxCell>
      </root>
    </mxGraphModel>
  </diagram>
</mxfile>
